- 
http://www.Speed.Cd 
       
http://www.Speed.Cd      fast  and The Hottest Private Tracker on the net

(((--Submit for invite!!--)))

Please Seed back to make the speed Faster!!!

------------------nfo--------------------------
-








































          
          
              
              
                    
                    
                    
                    

Bereavement.2010.BRRip.Xvid.AC3-SiC

Poster:
[img]http://img825.imageshack.us/img825/1825/coverocz.jpg[/img]

IMDB Link:
http://www.imdb.com/title/tt1100051/

Description:
The horrific account of 6 year old Martin Bristol, abducted from his backyard
swing and forced to witness the brutal crimes of a deranged madman. 

MediaInfo:
General
Complete name                    : Bereavement.2010.BRRip.Xvid.AC3-SiC.avi
Format                           : AVI
Format/Info                      : Audio Video Interleave
File size                        : 1.30 GiB
Duration                         : 1h 47mn
Overall bit rate                 : 1 727 Kbps

Video
ID                               : 0
Format                           : MPEG-4 Visual
Format profile                   : Advanced Simple@L5
Format settings, BVOP            : Yes
Format settings, QPel            : No
Format settings, GMC             : No warppoints
Format settings, Matrix          : Default (H.263)
Muxing mode                      : Packed bitstream
Codec ID                         : XVID
Codec ID/Hint                    : XviD
Duration                         : 1h 47mn
Bit rate                         : 1 335 Kbps
Width                            : 720 pixels
Height                           : 304 pixels
Display aspect ratio             : 2.35:1
Frame rate                       : 23.976 fps
Resolution                       : 8 bits
Colorimetry                      : 4:2:0
Scan type                        : Progressive
Bits/(Pixel*Frame)               : 0.254
Stream size                      : 1.00 GiB (77%)
Writing library                  : XviD 64

Audio
ID                               : 1
Format                           : AC-3
Format/Info                      : Audio Coding 3
Format_Settings_ModeExtension    : CM (complete main)
Codec ID                         : 2000
Duration                         : 1h 47mn
Bit rate mode                    : Constant
Bit rate                         : 384 Kbps
Channel(s)                       : 6 channels
Channel positions                : Front: L C R, Side: L R, LFE
Sampling rate                    : 48.0 KHz
Stream size                      : 295 MiB (22%)
Alignment                        : Aligned on interleaves
Interleave, duration             : 64 ms (1.53 video frames)
Interleave, preload duration     : 192 ms
Title                            : 6ch English

Screenshots:
[img]http://img12.imageshack.us/img12/9513/bereavement2010brripxvi.png[/img]
[img]http://img838.imageshack.us/img838/9513/bereavement2010brripxvi.png[/img]
[img]http://img217.imageshack.us/img217/9513/bereavement2010brripxvi.png[/img]
[img]http://img59.imageshack.us/img59/3552/vlcsnap2011083119h22m42.png[/img]
[img]http://img204.imageshack.us/img204/9513/bereavement2010brripxvi.png[/img]

Note :   N/A

Source : BluRay-THUGLiNE Thanks!!!

Enjoy!

Respects to CaptainHomey, Cyanide, CM8, Rx, THC, ELEKTRI4KA, 
Killerhz, PA, YeFsTe, BoxSlots, MrRep and everyone in the struggle...